<svg width="35" height="35" viewBox="0 0 35 35" fill="none" xmlns="http://www.w3.org/2000/svg">
<g clip-path="url(#clip0_1_936)">
<path d="M2.18757 2.38176C-0.562849 5.23864 6.74352e-05 8.27343 6.74352e-05 17.493C6.74352e-05 25.1493 -1.33577 32.8245 5.65548 34.6313C7.83861 35.1928 27.1819 35.1928 29.3622 34.6284C32.273 33.8774 34.6413 31.5163 34.9651 27.3995C35.0103 26.8249 35.0103 8.17134 34.9636 7.58509C34.6194 3.19989 31.9201 0.672593 28.3632 0.160718C27.548 0.0425933 27.3847 0.00759335 23.2022 0.000301678C8.36652 0.00759335 5.11444 -0.653032 2.18757 2.38176Z" fill="url(#paint0_linear_1_936)"/>
<path d="M17.497 4.5779C12.2018 4.5779 7.17343 4.10686 5.25281 9.03603C4.45948 11.0719 4.57468 13.7158 4.57468 17.5017C4.57468 20.8237 4.46823 23.946 5.25281 25.9658C7.16906 30.8979 12.2382 30.4254 17.4941 30.4254C22.5647 30.4254 27.7928 30.9533 29.7368 25.9658C30.5316 23.9096 30.4149 21.305 30.4149 17.5017C30.4149 12.4529 30.6934 9.19353 28.2449 6.74644C25.7657 4.26728 22.413 4.5779 17.4911 4.5779H17.497ZM16.3391 6.90686C27.3845 6.88936 28.7903 5.66145 28.0145 22.7196C27.7389 28.7527 23.1451 28.0906 17.4984 28.0906C7.2026 28.0906 6.90656 27.796 6.90656 17.4958C6.90656 7.07603 7.72323 6.91269 16.3391 6.90394V6.90686ZM24.3949 9.05207C23.5389 9.05207 22.8447 9.74624 22.8447 10.6023C22.8447 11.4583 23.5389 12.1525 24.3949 12.1525C25.2509 12.1525 25.9451 11.4583 25.9451 10.6023C25.9451 9.74624 25.2509 9.05207 24.3949 9.05207ZM17.497 10.8648C13.8322 10.8648 10.8616 13.8369 10.8616 17.5017C10.8616 21.1664 13.8322 24.1371 17.497 24.1371C21.1618 24.1371 24.1309 21.1664 24.1309 17.5017C24.1309 13.8369 21.1618 10.8648 17.497 10.8648ZM17.497 13.1937C23.1918 13.1937 23.1991 21.8096 17.497 21.8096C11.8036 21.8096 11.7949 13.1937 17.497 13.1937Z" fill="white"/>
</g>
<defs>
<linearGradient id="paint0_linear_1_936" x1="2.25468" y1="32.7648" x2="34.7835" y2="4.61152" gradientUnits="userSpaceOnUse">
<stop stop-color="#FFDD55"/>
<stop offset="0.5" stop-color="#FF543E"/>
<stop offset="1" stop-color="#C837AB"/>
</linearGradient>
<clipPath id="clip0_1_936">
<rect width="35" height="35" fill="white"/>
</clipPath>
</defs>
</svg>
