<svg width="34" height="18" viewBox="0 0 34 18" fill="none" xmlns="http://www.w3.org/2000/svg">
<path d="M32.6718 7.67186H4.54493L9.20426 3.03512C9.72416 2.51768 9.72615 1.67678 9.20871 1.15689C8.69127 0.636925 7.8503 0.635 7.33041 1.15237L0.390691 8.05861C0.390226 8.05901 0.389894 8.05947 0.389496 8.05987C-0.129071 8.57731 -0.130731 9.42093 0.389363 9.94009C0.389828 9.94049 0.39016 9.94095 0.390558 9.94135L7.33028 16.8476C7.85011 17.3649 8.69107 17.3631 9.20858 16.8431C9.72602 16.3232 9.72402 15.4823 9.20413 14.9648L4.54493 10.3281H32.6718C33.4054 10.3281 34 9.7335 34 8.99998C34 8.26646 33.4054 7.67186 32.6718 7.67186Z" fill="#E1E1E1"/>
</svg>
