<svg width="28" height="28" viewBox="0 0 28 28" fill="none" xmlns="http://www.w3.org/2000/svg">
<g clip-path="url(#clip0_1_150)">
<path d="M23.94 4.02383C21.28 1.4525 17.78 0 14.0525 0C3.35417 0 -3.3635 11.5908 1.97867 20.811L0 28L7.39083 26.0727C10.6108 27.8122 13.2487 27.6582 14.0595 27.7608C26.4647 27.7608 32.6398 12.7528 23.9225 4.06933L23.94 4.02383Z" fill="#ECEFF1"/>
<path d="M14.0782 25.3762L14.0712 25.375H14.0525C10.3402 25.375 7.96832 23.6168 7.73499 23.5153L3.35999 24.6528L4.53249 20.4003L4.25365 19.9628C3.09865 18.1242 2.48499 16.0067 2.48499 13.8262C2.48499 3.56767 15.0208 -1.56216 22.2752 5.68867C29.512 12.8637 24.4312 25.3762 14.0782 25.3762Z" fill="#1FA181"/>
<path d="M20.4248 16.6915L20.4143 16.779C20.0632 16.604 18.3528 15.7675 18.0343 15.652C17.3192 15.3872 17.521 15.61 16.1478 17.1827C15.9437 17.4102 15.7407 17.4277 15.3942 17.2702C15.0442 17.0952 13.9207 16.7277 12.5907 15.5377C11.5547 14.6102 10.8593 13.4727 10.654 13.1227C10.3122 12.5324 11.0273 12.4484 11.6783 11.2164C11.795 10.9714 11.7355 10.7789 11.6492 10.605C11.5617 10.43 10.8652 8.71503 10.5735 8.03137C10.2935 7.35003 10.0053 7.43637 9.78949 7.43637C9.11749 7.37803 8.62633 7.38737 8.19349 7.8377C6.31049 9.90737 6.78533 12.0424 8.39649 14.3127C11.5628 18.4567 13.2498 19.2197 16.3345 20.279C17.1675 20.5439 17.927 20.5065 18.5278 20.4202C19.1975 20.314 20.5893 19.579 20.8798 18.7565C21.1773 17.934 21.1773 17.2515 21.0898 17.094C21.0035 16.9365 20.7748 16.849 20.4248 16.6915Z" fill="#FAFAFA"/>
</g>
<defs>
<clipPath id="clip0_1_150">
<rect width="28" height="28" fill="white"/>
</clipPath>
</defs>
</svg>
